<svg height="512pt" viewBox="-47 0 512 512" width="512pt" xmlns="http://www.w3.org/2000/svg"><path d="m407.308594 225.015625v-81.257813c0-17.402343-12.453125-31.945312-28.914063-35.199218v-96.097656c0-6.871094-5.589843-12.460938-12.457031-12.460938h-311.996094c-6.871094 0-12.460937 5.589844-12.460937 12.460938v10.84375c0 4.128906 3.347656 7.476562 7.476562 7.476562 4.128907 0 7.476563-3.347656 7.476563-7.476562v-8.355469h307.011718v93.167969h-27.625c-9.839843 0-17.847656 8.007812-17.847656 17.847656 0 3.867187 1.25 7.441406 3.351563 10.371094-2.101563 2.925781-3.351563 6.5-3.351563 10.371093 0 9.839844 8.007813 17.84375 17.847656 17.84375h27.625v6.847657h-307.011718v-6.847657h26.738281c9.839844 0 17.84375-8.003906 17.84375-17.84375 0-3.871093-1.25-7.445312-3.351563-10.371093 2.101563-2.929688 3.351563-6.503907 3.351563-10.371094 0-9.839844-8.003906-17.847656-17.84375-17.847656h-26.738281v-50.675782c0-4.128906-3.347656-7.476562-7.476563-7.476562-4.128906 0-7.476562 3.347656-7.476562 7.476562v50.960938c-16.894531 2.898437-29.796875 17.644531-29.796875 35.355468v81.1875c-6.507813.402344-11.683594 5.808594-11.683594 12.417969v77.476563c0 44.523437 19.65625 86.355468 53.929688 114.832031 3.390624 2.824219 6.09375 5.910156 8.882812 9.503906 6.011719 8.410157 9.335938 18.613281 9.335938 29.335938v31.027343c0 6.871094 5.589843 12.460938 12.460937 12.460938h248.976563c6.867187 0 12.457031-5.589844 12.457031-12.460938v-31.027343c0-10.640625 3.3125-20.824219 9.296875-29.234375 2.453125-3.457032 5.441406-6.722656 8.703125-9.417969 34.414062-28.480469 54.148437-70.402344 54.148437-115.019531v-77.476563c0-6.335937-4.757812-11.570312-10.882812-12.347656zm-41.371094-38.667969c6.867188 0 12.457031-5.589844 12.457031-12.457031v-16.816406c0-4.128907-3.34375-7.472657-7.472656-7.472657-.433594 0-.851563.042969-1.261719.113282-.410156-.070313-.828125-.113282-1.257812-.113282h-32.585938c-1.59375 0-2.894531-1.296874-2.894531-2.894531 0-1.597656 1.300781-2.894531 2.894531-2.894531h32.585938c4.128906 0 7.476562-3.347656 7.476562-7.476562 0-4.128907-3.347656-7.476563-7.476562-7.476563h-32.585938c-1.59375 0-2.894531-1.296875-2.894531-2.894531s1.300781-2.894532 2.894531-2.894532h35.574219c.539063 0 1.058594-.058593 1.5625-.167968 10.828125.789062 19.402344 9.832031 19.402344 20.855468v81.148438h-32.582031v-25.660156c0-3.695313-2.027344-7.070313-5.296876-8.808594-1.679687-.898438-2.917968-2.367188-3.554687-4.085938h15.015625zm-32.46875 51.015625v77.476563c0 13.597656-4.179688 26.503906-11.914062 37.335937-2.121094 2.933594-4.441407 5.699219-7.003907 8.257813-12.011719 11.992187-28.40625 18.921875-45.597656 18.921875h-9.527344v-.90625c5.980469-6.660157 10.714844-14.519531 13.75-23.265625 14.058594-4.503906 23.839844-17.609375 23.839844-32.75 0-11.628906-8.765625-21.25-20.039063-22.601563v-25.949219c0-26.371093-21.453124-47.824218-47.820312-47.824218h-41.726562c-26.371094 0-47.824219 21.453125-47.824219 47.824218v25.964844c-11.203125 1.417969-19.894531 11.003906-19.894531 22.585938 0 15.054687 9.714843 28.136718 23.679687 32.695312 3.175781 9.171875 8.214844 17.367188 14.601563 24.226563h-8.757813c-17.335937 0-33.734375-6.953125-45.742187-19.027344-2.835938-2.851563-5.378907-5.972656-7.660157-9.285156-7.21875-10.601563-11.109375-23.101563-11.109375-36.203125v-77.476563c0-6.21875-4.589844-11.375-10.558594-12.296875v-23.074218c5.121094-3.695313 8.453126-9.363282 9.191407-15.644532h252.28125c.734375 6.28125 4.066406 11.949219 9.1875 15.644532v22.96875c-6.355469.5625-11.355469 5.90625-11.355469 12.402343zm-176.972656 109.578125c-.761719-2.769531-3.046875-4.859375-5.875-5.371094-9.246094-1.675781-15.957032-9.726562-15.957032-19.136718 0-4.277344 3.457032-7.761719 7.722657-7.808594 1.285156 1.039062 2.917969 1.660156 4.695312 1.660156 4.128907 0 7.476563-3.34375 7.476563-7.472656 0-24.132812 19.632812-43.765625 43.765625-43.765625h19.9375c24.132812 0 43.765625 19.632813 43.765625 43.765625 0 4.128906 3.34375 7.472656 7.476562 7.472656 1.78125 0 3.414063-.625 4.699219-1.664062h.050781c4.304688 0 7.808594 3.503906 7.808594 7.8125 0 9.464844-6.753906 17.523437-16.066406 19.15625-2.84375.5-5.144532 2.589844-5.914063 5.375-6.402343 23.207031-27.695312 39.414062-51.789062 39.414062-24.105469 0-45.402344-16.21875-51.796875-39.4375zm-1.628906-77.574218c2.207031-15.996094 15.96875-28.355469 32.5625-28.355469h41.726562c16.589844 0 30.355469 12.359375 32.5625 28.355469-10.75-11.832032-26.25-19.269532-43.457031-19.269532h-19.9375c-17.207031 0-32.707031 7.4375-43.457031 19.269532zm-108.832032-146.464844c.503906.109375 1.027344.167968 1.5625.167968h35.574219c1.59375 0 2.894531 1.296876 2.894531 2.894532 0 1.59375-1.300781 2.894531-2.894531 2.894531h-33.582031c-4.128906 0-7.476563 3.347656-7.476563 7.476563 0 4.128906 3.347657 7.472656 7.476563 7.472656h33.582031c1.59375 0 2.894531 1.300781 2.894531 2.894531 0 1.597656-1.300781 2.898437-2.894531 2.898437h-32.855469c-.441406-.082031-.894531-.128906-1.359375-.128906-4.128906 0-7.476562 3.34375-7.476562 7.472656v16.945313c0 6.867187 5.589843 12.457031 12.457031 12.457031h14.132812c-.640624 1.722656-1.878906 3.1875-3.558593 4.085938-3.269531 1.742187-5.296875 5.117187-5.296875 8.808594v25.660156h-32.582032v-81.144532c0-11.027343 8.574219-20.066406 19.402344-20.855468zm-31.085937 191.9375v-74.984375h54.820312v74.984375c0 14.710937 3.980469 28.808594 11.417969 41.078125l-25.097656 55.632812c-26.257813-25.269531-41.140625-59.972656-41.140625-96.710937zm52.816406 107.183594 23.726563-52.589844c.234374.246094.480468.476562.714843.71875.257813.265625.5.539062.761719.800781.117188.117187.242188.222656.367188.332031 11.914062 11.800782 27.257812 19.5625 43.875 22.105469l45.285156 103.660156h-95.398438v-28.539062c0-17.703125-6.984375-34.359375-19.332031-46.488281zm263.324219 46.488281v28.539062h-96.859375l32.742187-74.949219c1.652344-3.785156-.078125-8.191406-3.859375-9.84375-3.78125-1.652343-8.1875.074219-9.84375 3.855469l-35.355469 80.933594h-19.101562l-44.882812-102.742187h10.707031c2.835937 0 5.304687-1.578126 6.570312-3.90625 10.8125 6.953124 23.605469 10.929687 37.085938 10.929687 12.976562 0 25.316406-3.683594 35.863281-10.160156-1.980469 12.816406-13.085938 22.664062-26.453125 22.664062h-18.824219c-5.257812 0-10.347656-1.523437-14.714844-4.402343-3.445312-2.273438-8.082031-1.324219-10.355468 2.121093-2.273438 3.445313-1.324219 8.085938 2.125 10.359375 6.816406 4.496094 14.75 6.871094 22.945312 6.871094h18.824219c20.535156 0 37.640625-14.914062 41.078125-34.476562h10.171875c20.570313 0 40.203125-8.058594 54.863281-22.046876.1875-.148437.371094-.308593.542969-.476562.3125-.304688.605469-.621094.910156-.929688.136719-.136718.285157-.269531.421875-.410156l23.730469 52.601563c-2.597656 2.675781-4.964844 5.578125-7.074219 8.683593-.082031.125-.152344.25-.230468.375-7.109376 10.617188-11.027344 23.253907-11.027344 36.410157zm72.148437-153.671875c0 37.214844-15.269531 72.335937-42.164062 97.683594l-24.925781-55.257813c7.984374-12.570313 12.269531-27.144531 12.269531-42.425781v-74.984375h54.820312zm0 0"/><path d="m297.820312 67.835938c0-4.132813-3.347656-7.476563-7.476562-7.476563h-163.960938c-4.128906 0-7.476562 3.347656-7.476562 7.476563 0 4.125 3.347656 7.472656 7.476562 7.472656h163.960938c4.128906 0 7.476562-3.34375 7.476562-7.472656zm0 0"/><path d="m147.027344 97.539062c-4.128906 0-7.472656 3.347657-7.472656 7.476563 0 4.125 3.34375 7.472656 7.472656 7.472656h125.820312c4.128906 0 7.472656-3.347656 7.472656-7.472656 0-4.128906-3.34375-7.476563-7.472656-7.476563zm0 0"/><path d="m189.914062 315.507812c0 4.8125-3.902343 8.714844-8.714843 8.714844s-8.714844-3.902344-8.714844-8.714844c0-4.816406 3.902344-8.71875 8.714844-8.71875s8.714843 3.902344 8.714843 8.71875zm0 0"/><path d="m244.78125 315.507812c0 4.8125-3.898438 8.714844-8.714844 8.714844-4.8125 0-8.714844-3.902344-8.714844-8.714844 0-4.816406 3.902344-8.71875 8.714844-8.71875 4.816406 0 8.714844 3.902344 8.714844 8.71875zm0 0"/><path d="m220.992188 356.929688v-11.90625c0-6.605469-5.355469-11.960938-11.960938-11.960938s-11.960938 5.355469-11.960938 11.960938v11.90625c0 6.605468 5.355469 11.960937 11.960938 11.960937s11.960938-5.355469 11.960938-11.960937zm0 0"/></svg>